# xmcd CD database file
#
# Track frame offsets:
#	150
#	29515
#	51706
#	71965
#	88379
#	111215
#	136279
#	174058
#	207713
#	240693
#	259217
#	282140
#
# Disc length: 4014 seconds
#
# Revision: 0
# Processed by: cddbd v1.5.2PL0 Copyright (c) Steve Scherf et al.
# Submitted via: CDex 1.70beta2
#
DISCID=c00fac0c
DTITLE=Charles Lloyd - The Water is Wide
DYEAR=2000
DGENRE=Jazz
TTITLE0=Georgia
TTITLE1=The Water Is Wide
TTITLE2=Black Butterfly
TTITLE3=Ballade And Allegro
TTITLE4=Figure In Blue
TTITLE5=Lotus Blossom
TTITLE6=The Monk And The Mermaid
TTITLE7=Song Of Her
TTITLE8=Lady Day
TTITLE9=Heaven
TTITLE10=There Is A Balm In Gilead
TTITLE11=Prayer
EXTD=YEAR: 2000
EXTT0=
EXTT1=
EXTT2=
EXTT3=
EXTT4=
EXTT5=
EXTT6=
EXTT7=
EXTT8=
EXTT9=
EXTT10=
EXTT11=
PLAYORDER=
